# xmcd CD database file
#
# Track frame offsets:
#	150
#	13902
#	31180
#	53302
#	67532
#	87017
#	101920
#	124327
#	137917
#	154045
#	169860
#	185072
#	208895
#	233932
#
# Disc length: 3342 seconds
#
# Revision: 4
# Processed by: cddbd v1.5.2PL0 Copyright (c) Steve Scherf et al.
# Submitted via: CDex 1.51
#
DISCID=ba0d0c0e
DTITLE=Real de Catorce - Cicatrices
DYEAR=1900
DGENRE=Blues
TTITLE0=Cicatrices
TTITLE1=Bebimos y vivimos
TTITLE2=No me dejes por favor
TTITLE3=Labios rotos
TTITLE4=Lila
TTITLE5=Un largo rato
TTITLE6=Mujer liviana
TTITLE7=La venenosa
TTITLE8=La Buenos Aires
TTITLE9=Ogarrio
TTITLE10=Hikuri
TTITLE11=Prendas de algodón
TTITLE12=Anforita de blues
TTITLE13=El anticuario
EXTD=
EXTT0=
EXTT1=
EXTT2=
EXTT3=
EXTT4=
EXTT5=
EXTT6=
EXTT7=
EXTT8=
EXTT9=
EXTT10=
EXTT11=
EXTT12=
EXTT13=
PLAYORDER=
